<svg width="85" height="29" viewBox="0 0 85 29" fill="none" xmlns="http://www.w3.org/2000/svg">
<path fill-rule="evenodd" clip-rule="evenodd" d="M28 14C28 21.732 21.732 28 14 28C6.26801 28 0 21.732 0 14C0 6.26801 6.26801 0 14 0C21.732 0 28 6.26801 28 14ZM19.4472 6.51162L14.7989 15.9794C14.7258 16.1254 14.6163 16.2418 14.4703 16.3285C14.3288 16.4198 14.1713 16.4654 13.9979 16.4654C13.829 16.4654 13.6716 16.4198 13.5255 16.3285C13.3841 16.2418 13.2745 16.1254 13.1969 15.9794L8.55549 6.51162H10.5476L13.9979 13.5834L17.4619 6.51162H19.4472ZM7.41275 15.5551C7.09488 15.2373 6.57952 15.2373 6.26165 15.5551C5.94378 15.873 5.94378 16.3884 6.26165 16.7062C8.023 18.4676 9.41723 19.8365 10.6145 20.7604C11.8109 21.6835 12.929 22.2583 14.1394 22.2583C15.3498 22.2583 16.4679 21.6835 17.6643 20.7604C18.8616 19.8365 20.2558 18.4676 22.0172 16.7062C22.335 16.3884 22.335 15.873 22.0172 15.5551C21.6993 15.2373 21.1839 15.2373 20.8661 15.5551C19.085 17.3362 17.768 18.6241 16.6698 19.4715C15.5707 20.3196 14.8089 20.6304 14.1394 20.6304C13.4699 20.6304 12.7081 20.3196 11.609 19.4715C10.5108 18.6241 9.19385 17.3362 7.41275 15.5551Z" fill="#3E4095"/>
<path d="M48.0261 23H41.7861C41.4821 23 41.2261 22.944 41.0181 22.832C40.8261 22.72 40.6741 22.512 40.5621 22.208L38.2101 16.328C38.0661 15.976 37.9461 15.672 37.8501 15.416C37.7541 15.144 37.6741 14.888 37.6101 14.648C37.5461 14.408 37.4981 14.16 37.4661 13.904C37.4501 13.632 37.4421 13.304 37.4421 12.92V6.584C37.4421 6.28 37.5061 6.064 37.6341 5.936C37.7781 5.792 38.0021 5.72 38.3061 5.72H42.1221C42.4261 5.72 42.6581 5.792 42.8181 5.936C42.9781 6.064 43.0581 6.28 43.0581 6.584V13.208C43.0581 13.368 43.0741 13.528 43.1061 13.688C43.1381 13.848 43.1861 14.016 43.2501 14.192L44.3781 17.552C44.4261 17.712 44.4821 17.824 44.5461 17.888C44.6101 17.936 44.7061 17.96 44.8341 17.96H45.0981C45.2261 17.96 45.3221 17.936 45.3861 17.888C45.4501 17.824 45.5061 17.712 45.5541 17.552L46.6821 14.168C46.7461 13.992 46.7941 13.824 46.8261 13.664C46.8581 13.504 46.8741 13.344 46.8741 13.184V6.584C46.8741 6.28 46.9381 6.064 47.0661 5.936C47.2101 5.792 47.4341 5.72 47.7381 5.72H51.5061C51.8101 5.72 52.0261 5.792 52.1541 5.936C52.2981 6.064 52.3701 6.28 52.3701 6.584V12.92C52.3701 13.304 52.3541 13.632 52.3221 13.904C52.3061 14.16 52.2661 14.408 52.2021 14.648C52.1381 14.888 52.0581 15.144 51.9621 15.416C51.8661 15.672 51.7461 15.976 51.6021 16.328L49.2501 22.208C49.1381 22.512 48.9781 22.72 48.7701 22.832C48.5781 22.944 48.3301 23 48.0261 23ZM40.1541 7.88V13.064C40.1541 13.512 40.1781 13.928 40.2261 14.312C40.2901 14.68 40.3941 15.04 40.5381 15.392L42.1221 19.232C42.3141 19.696 42.5301 20.08 42.7701 20.384C43.0101 20.688 43.3781 20.84 43.8741 20.84H45.9861C46.4821 20.84 46.8501 20.688 47.0901 20.384C47.3301 20.08 47.5461 19.696 47.7381 19.232L49.3221 15.392C49.4661 15.04 49.5621 14.68 49.6101 14.312C49.6741 13.928 49.7061 13.512 49.7061 13.064V7.88H49.4661V13.064C49.4661 13.48 49.4341 13.88 49.3701 14.264C49.3061 14.632 49.2101 14.976 49.0821 15.296L47.4981 19.136C47.3381 19.552 47.1541 19.904 46.9461 20.192C46.7541 20.464 46.4341 20.6 45.9861 20.6H43.8741C43.4261 20.6 43.0981 20.464 42.8901 20.192C42.6981 19.904 42.5221 19.552 42.3621 19.136L40.7781 15.296C40.6501 14.976 40.5541 14.632 40.4901 14.264C40.4261 13.88 40.3941 13.48 40.3941 13.064V7.88H40.1541ZM61.3813 13.76C61.0933 13.76 60.8853 13.696 60.7573 13.568C60.6293 13.44 60.4293 13.168 60.1573 12.752L57.2293 8.288C57.1333 8.128 57.0213 8.024 56.8933 7.976C56.7653 7.912 56.6373 7.88 56.5093 7.88H56.1013C55.8933 7.88 55.7333 7.944 55.6213 8.072C55.5253 8.184 55.4773 8.368 55.4773 8.624V20.84H55.7173V8.624C55.7173 8.496 55.7413 8.384 55.7893 8.288C55.8373 8.176 55.9413 8.12 56.1013 8.12H56.4613C56.5733 8.12 56.6693 8.136 56.7493 8.168C56.8453 8.2 56.9413 8.296 57.0373 8.456L59.9653 12.872C60.2533 13.304 60.4693 13.6 60.6133 13.76C60.7733 13.92 61.0293 14 61.3813 14C61.7333 14 61.9813 13.92 62.1253 13.76C62.2853 13.6 62.5093 13.304 62.7973 12.872L65.7253 8.456C65.8213 8.296 65.9093 8.2 65.9893 8.168C66.0693 8.136 66.1653 8.12 66.2773 8.12H66.6373C66.7973 8.12 66.9013 8.176 66.9493 8.288C67.0133 8.384 67.0453 8.496 67.0453 8.624V20.84H67.2853V8.624C67.2853 8.368 67.2293 8.184 67.1173 8.072C67.0213 7.944 66.8613 7.88 66.6373 7.88H66.2293C66.1013 7.88 65.9733 7.912 65.8453 7.976C65.7333 8.024 65.6293 8.128 65.5333 8.288L62.6053 12.752C62.3333 13.168 62.1333 13.44 62.0053 13.568C61.8773 13.696 61.6693 13.76 61.3813 13.76ZM57.3733 23H53.7973C53.4933 23 53.2693 22.936 53.1253 22.808C52.9973 22.664 52.9333 22.44 52.9333 22.136V6.584C52.9333 6.28 52.9973 6.064 53.1253 5.936C53.2693 5.792 53.4933 5.72 53.7973 5.72H57.6613C57.9173 5.72 58.1253 5.776 58.2853 5.888C58.4613 6 58.6213 6.184 58.7653 6.44L60.9253 10.352C61.0053 10.496 61.0693 10.6 61.1173 10.664C61.1813 10.728 61.2613 10.76 61.3573 10.76H61.5733C61.6693 10.76 61.7413 10.728 61.7893 10.664C61.8533 10.6 61.9253 10.496 62.0053 10.352L64.1413 6.44C64.2853 6.184 64.4373 6 64.5973 5.888C64.7733 5.776 64.9893 5.72 65.2453 5.72H69.1333C69.4373 5.72 69.6533 5.792 69.7813 5.936C69.9253 6.064 69.9973 6.28 69.9973 6.584V22.136C69.9973 22.44 69.9253 22.664 69.7813 22.808C69.6533 22.936 69.4373 23 69.1333 23H65.4373C65.1333 23 64.9093 22.936 64.7653 22.808C64.6373 22.664 64.5733 22.44 64.5733 22.136V13.688L63.1573 16.304C63.0133 16.576 62.8373 16.776 62.6293 16.904C62.4373 17.016 62.1893 17.072 61.8853 17.072H60.9253C60.6213 17.072 60.3653 17.016 60.1573 16.904C59.9653 16.776 59.7973 16.576 59.6533 16.304L58.2373 13.688V22.136C58.2373 22.44 58.1653 22.664 58.0213 22.808C57.8933 22.936 57.6773 23 57.3733 23ZM78.9165 23H71.3325C71.0285 23 70.8045 22.936 70.6605 22.808C70.5325 22.664 70.4685 22.44 70.4685 22.136V19.328C70.4685 19.024 70.5325 18.808 70.6605 18.68C70.8045 18.536 71.0285 18.464 71.3325 18.464H77.7885C77.9965 18.464 78.1485 18.4 78.2445 18.272C78.3565 18.128 78.4125 17.96 78.4125 17.768C78.4125 17.496 78.3565 17.296 78.2445 17.168C78.1485 17.04 77.9965 16.968 77.7885 16.952L74.1885 16.448C73.0685 16.288 72.1645 15.92 71.4765 15.344C70.8045 14.768 70.4685 13.808 70.4685 12.464V9.944C70.4685 8.584 70.9085 7.544 71.7885 6.824C72.6685 6.088 73.8845 5.72 75.4365 5.72H82.1565C82.4605 5.72 82.6765 5.792 82.8045 5.936C82.9485 6.064 83.0205 6.28 83.0205 6.584V9.44C83.0205 9.744 82.9485 9.968 82.8045 10.112C82.6765 10.24 82.4605 10.304 82.1565 10.304H76.5645C76.3565 10.304 76.1965 10.376 76.0845 10.52C75.9725 10.648 75.9165 10.816 75.9165 11.024C75.9165 11.232 75.9725 11.408 76.0845 11.552C76.1965 11.696 76.3565 11.776 76.5645 11.792L80.1405 12.272C81.2605 12.432 82.1645 12.8 82.8525 13.376C83.5405 13.952 83.8845 14.912 83.8845 16.256V18.776C83.8845 20.136 83.4365 21.184 82.5405 21.92C81.6605 22.64 80.4525 23 78.9165 23ZM80.8605 7.88H75.5325C74.7965 7.88 74.2045 8.088 73.7565 8.504C73.3085 8.904 73.0845 9.424 73.0845 10.064V12.032C73.0845 12.688 73.2125 13.144 73.4685 13.4C73.7405 13.64 74.0845 13.8 74.5005 13.88L79.5645 14.912C80.0125 15.008 80.3645 15.2 80.6205 15.488C80.8925 15.76 81.0285 16.272 81.0285 17.024V18.416C81.0285 19.056 80.8045 19.584 80.3565 20C79.9245 20.4 79.3405 20.6 78.6045 20.6H72.6285V20.84H78.6045C79.4205 20.84 80.0685 20.616 80.5485 20.168C81.0285 19.704 81.2685 19.12 81.2685 18.416V17.024C81.2685 16.192 81.1085 15.616 80.7885 15.296C80.4845 14.976 80.0925 14.768 79.6125 14.672L74.5485 13.64C74.1805 13.576 73.8845 13.432 73.6605 13.208C73.4365 12.984 73.3245 12.592 73.3245 12.032V10.064C73.3245 9.504 73.5245 9.04 73.9245 8.672C74.3245 8.304 74.8605 8.12 75.5325 8.12H80.8605V7.88Z" fill="#3E4095"/>
</svg>
