<svg width="72" height="103" viewBox="0 0 72 103" fill="none" xmlns="http://www.w3.org/2000/svg">
<g id="Group 3">
<path id="Subtract" fill-rule="evenodd" clip-rule="evenodd" d="M72 36C72 55.8823 55.8823 72 36 72C16.1177 72 0 55.8823 0 36C0 16.1177 16.1177 0 36 0C55.8823 0 72 16.1177 72 36ZM50.007 16.7442L38.0542 41.0899C37.8665 41.4655 37.5848 41.7647 37.2093 41.9877C36.8455 42.2224 36.4406 42.3398 35.9946 42.3398C35.5604 42.3398 35.1555 42.2224 34.78 41.9877C34.4162 41.7647 34.1345 41.4655 33.935 41.0899L21.9998 16.7442H27.1225L35.9946 34.9287L44.902 16.7442H50.007ZM19.0614 39.9989C18.244 39.1816 16.9188 39.1816 16.1014 39.9989C15.284 40.8163 15.284 42.1415 16.1014 42.9589C20.6306 47.4881 24.2157 51.0082 27.2945 53.3838C30.3709 55.7575 33.2461 57.2357 36.3585 57.2357C39.4709 57.2357 42.3461 55.7575 45.4224 53.3838C48.5012 51.0082 52.0864 47.4881 56.6156 42.9589C57.4329 42.1415 57.4329 40.8163 56.6156 39.9989C55.7982 39.1816 54.473 39.1816 53.6556 39.9989C49.0756 44.5789 45.6892 47.8906 42.8652 50.0696C40.0389 52.2505 38.08 53.0496 36.3585 53.0496C34.6369 53.0496 32.6781 52.2505 29.8517 50.0696C27.0278 47.8906 23.6413 44.5789 19.0614 39.9989Z" fill="white"/>
<g id="VMS">
<path d="M23.584 103H17.344C17.04 103 16.784 102.944 16.576 102.832C16.384 102.72 16.232 102.512 16.12 102.208L13.768 96.328C13.624 95.976 13.504 95.672 13.408 95.416C13.312 95.144 13.232 94.888 13.168 94.648C13.104 94.408 13.056 94.16 13.024 93.904C13.008 93.632 13 93.304 13 92.92V86.584C13 86.28 13.064 86.064 13.192 85.936C13.336 85.792 13.56 85.72 13.864 85.72H17.68C17.984 85.72 18.216 85.792 18.376 85.936C18.536 86.064 18.616 86.28 18.616 86.584V93.208C18.616 93.368 18.632 93.528 18.664 93.688C18.696 93.848 18.744 94.016 18.808 94.192L19.936 97.552C19.984 97.712 20.04 97.824 20.104 97.888C20.168 97.936 20.264 97.96 20.392 97.96H20.656C20.784 97.96 20.88 97.936 20.944 97.888C21.008 97.824 21.064 97.712 21.112 97.552L22.24 94.168C22.304 93.992 22.352 93.824 22.384 93.664C22.416 93.504 22.432 93.344 22.432 93.184V86.584C22.432 86.28 22.496 86.064 22.624 85.936C22.768 85.792 22.992 85.72 23.296 85.72H27.064C27.368 85.72 27.584 85.792 27.712 85.936C27.856 86.064 27.928 86.28 27.928 86.584V92.92C27.928 93.304 27.912 93.632 27.88 93.904C27.864 94.16 27.824 94.408 27.76 94.648C27.696 94.888 27.616 95.144 27.52 95.416C27.424 95.672 27.304 95.976 27.16 96.328L24.808 102.208C24.696 102.512 24.536 102.72 24.328 102.832C24.136 102.944 23.888 103 23.584 103ZM15.712 87.88V93.064C15.712 93.512 15.736 93.928 15.784 94.312C15.848 94.68 15.952 95.04 16.096 95.392L17.68 99.232C17.872 99.696 18.088 100.08 18.328 100.384C18.568 100.688 18.936 100.84 19.432 100.84H21.544C22.04 100.84 22.408 100.688 22.648 100.384C22.888 100.08 23.104 99.696 23.296 99.232L24.88 95.392C25.024 95.04 25.12 94.68 25.168 94.312C25.232 93.928 25.264 93.512 25.264 93.064V87.88H25.024V93.064C25.024 93.48 24.992 93.88 24.928 94.264C24.864 94.632 24.768 94.976 24.64 95.296L23.056 99.136C22.896 99.552 22.712 99.904 22.504 100.192C22.312 100.464 21.992 100.6 21.544 100.6H19.432C18.984 100.6 18.656 100.464 18.448 100.192C18.256 99.904 18.08 99.552 17.92 99.136L16.336 95.296C16.208 94.976 16.112 94.632 16.048 94.264C15.984 93.88 15.952 93.48 15.952 93.064V87.88H15.712Z" fill="white"/>
<path d="M36.9393 93.76C36.6513 93.76 36.4433 93.696 36.3153 93.568C36.1873 93.44 35.9873 93.168 35.7153 92.752L32.7873 88.288C32.6912 88.128 32.5793 88.024 32.4513 87.976C32.3233 87.912 32.1953 87.88 32.0673 87.88H31.6593C31.4513 87.88 31.2913 87.944 31.1793 88.072C31.0833 88.184 31.0353 88.368 31.0353 88.624V100.84H31.2753V88.624C31.2753 88.496 31.2993 88.384 31.3473 88.288C31.3953 88.176 31.4993 88.12 31.6593 88.12H32.0193C32.1313 88.12 32.2273 88.136 32.3073 88.168C32.4033 88.2 32.4993 88.296 32.5953 88.456L35.5233 92.872C35.8113 93.304 36.0273 93.6 36.1713 93.76C36.3313 93.92 36.5872 94 36.9393 94C37.2913 94 37.5392 93.92 37.6833 93.76C37.8433 93.6 38.0673 93.304 38.3553 92.872L41.2833 88.456C41.3793 88.296 41.4673 88.2 41.5473 88.168C41.6273 88.136 41.7233 88.12 41.8353 88.12H42.1953C42.3553 88.12 42.4593 88.176 42.5073 88.288C42.5713 88.384 42.6033 88.496 42.6033 88.624V100.84H42.8433V88.624C42.8433 88.368 42.7873 88.184 42.6753 88.072C42.5793 87.944 42.4193 87.88 42.1953 87.88H41.7873C41.6593 87.88 41.5312 87.912 41.4033 87.976C41.2913 88.024 41.1873 88.128 41.0913 88.288L38.1633 92.752C37.8913 93.168 37.6913 93.44 37.5633 93.568C37.4353 93.696 37.2273 93.76 36.9393 93.76ZM32.9313 103H29.3553C29.0513 103 28.8273 102.936 28.6833 102.808C28.5553 102.664 28.4913 102.44 28.4913 102.136V86.584C28.4913 86.28 28.5553 86.064 28.6833 85.936C28.8273 85.792 29.0513 85.72 29.3553 85.72H33.2193C33.4753 85.72 33.6833 85.776 33.8433 85.888C34.0193 86 34.1793 86.184 34.3233 86.44L36.4833 90.352C36.5633 90.496 36.6273 90.6 36.6753 90.664C36.7393 90.728 36.8193 90.76 36.9153 90.76H37.1313C37.2273 90.76 37.2993 90.728 37.3473 90.664C37.4113 90.6 37.4833 90.496 37.5633 90.352L39.6993 86.44C39.8433 86.184 39.9953 86 40.1553 85.888C40.3313 85.776 40.5473 85.72 40.8033 85.72H44.6912C44.9953 85.72 45.2113 85.792 45.3393 85.936C45.4833 86.064 45.5553 86.28 45.5553 86.584V102.136C45.5553 102.44 45.4833 102.664 45.3393 102.808C45.2113 102.936 44.9953 103 44.6912 103H40.9953C40.6912 103 40.4673 102.936 40.3233 102.808C40.1953 102.664 40.1313 102.44 40.1313 102.136V93.688L38.7153 96.304C38.5713 96.576 38.3953 96.776 38.1873 96.904C37.9953 97.016 37.7473 97.072 37.4433 97.072H36.4833C36.1793 97.072 35.9233 97.016 35.7153 96.904C35.5233 96.776 35.3553 96.576 35.2113 96.304L33.7953 93.688V102.136C33.7953 102.44 33.7233 102.664 33.5793 102.808C33.4513 102.936 33.2353 103 32.9313 103Z" fill="white"/>
<path d="M54.4744 103H46.8904C46.5864 103 46.3624 102.936 46.2184 102.808C46.0904 102.664 46.0264 102.44 46.0264 102.136V99.328C46.0264 99.024 46.0904 98.808 46.2184 98.68C46.3624 98.536 46.5864 98.464 46.8904 98.464H53.3464C53.5544 98.464 53.7064 98.4 53.8024 98.272C53.9144 98.128 53.9704 97.96 53.9704 97.768C53.9704 97.496 53.9144 97.296 53.8024 97.168C53.7064 97.04 53.5544 96.968 53.3464 96.952L49.7464 96.448C48.6264 96.288 47.7224 95.92 47.0344 95.344C46.3624 94.768 46.0264 93.808 46.0264 92.464V89.944C46.0264 88.584 46.4664 87.544 47.3464 86.824C48.2264 86.088 49.4424 85.72 50.9944 85.72H57.7144C58.0184 85.72 58.2344 85.792 58.3624 85.936C58.5064 86.064 58.5784 86.28 58.5784 86.584V89.44C58.5784 89.744 58.5064 89.968 58.3624 90.112C58.2344 90.24 58.0184 90.304 57.7144 90.304H52.1224C51.9144 90.304 51.7544 90.376 51.6424 90.52C51.5304 90.648 51.4744 90.816 51.4744 91.024C51.4744 91.232 51.5304 91.408 51.6424 91.552C51.7544 91.696 51.9144 91.776 52.1224 91.792L55.6984 92.272C56.8184 92.432 57.7224 92.8 58.4104 93.376C59.0984 93.952 59.4424 94.912 59.4424 96.256V98.776C59.4424 100.136 58.9944 101.184 58.0984 101.92C57.2184 102.64 56.0104 103 54.4744 103ZM56.4184 87.88H51.0904C50.3544 87.88 49.7624 88.088 49.3144 88.504C48.8664 88.904 48.6424 89.424 48.6424 90.064V92.032C48.6424 92.688 48.7704 93.144 49.0264 93.4C49.2984 93.64 49.6424 93.8 50.0584 93.88L55.1224 94.912C55.5704 95.008 55.9224 95.2 56.1784 95.488C56.4504 95.76 56.5864 96.272 56.5864 97.024V98.416C56.5864 99.056 56.3624 99.584 55.9144 100C55.4824 100.4 54.8984 100.6 54.1624 100.6H48.1864V100.84H54.1624C54.9784 100.84 55.6264 100.616 56.1064 100.168C56.5864 99.704 56.8264 99.12 56.8264 98.416V97.024C56.8264 96.192 56.6664 95.616 56.3464 95.296C56.0424 94.976 55.6504 94.768 55.1704 94.672L50.1064 93.64C49.7384 93.576 49.4424 93.432 49.2184 93.208C48.9944 92.984 48.8824 92.592 48.8824 92.032V90.064C48.8824 89.504 49.0824 89.04 49.4824 88.672C49.8824 88.304 50.4184 88.12 51.0904 88.12H56.4184V87.88Z" fill="white"/>
</g>
</g>
</svg>
